<svg viewBox="0 0 24 24" xmlns="http://www.w3.org/2000/svg"><path d="m0 0h24v24h-24z" fill="#fff" opacity="0" transform="matrix(-1 0 0 -1 24 24)"/><g fill="#231f20"><circle cx="12" cy="12" r="1.5"/><path d="m20.32 9.37h-1.09c-.14 0-.24-.11-.3-.26a.34.34 0 0 1 0-.37l.81-.74a1.63 1.63 0 0 0 .5-1.18 1.67 1.67 0 0 0 -.5-1.19l-1.34-1.37a1.67 1.67 0 0 0 -2.37 0l-.77.74a.38.38 0 0 1 -.41 0 .34.34 0 0 1 -.22-.29v-1.03a1.68 1.68 0 0 0 -1.63-1.68h-1.94a1.69 1.69 0 0 0 -1.69 1.68v1.09c0 .14-.11.24-.26.3a.34.34 0 0 1 -.37 0l-.74-.81a1.72 1.72 0 0 0 -1.19-.5 1.65 1.65 0 0 0 -1.18.5l-1.37 1.34a1.67 1.67 0 0 0 0 2.4l.74.74a.38.38 0 0 1 0 .41.34.34 0 0 1 -.29.22h-1.03a1.68 1.68 0 0 0 -1.68 1.68v1.89a1.69 1.69 0 0 0 1.68 1.69h1.09c.14 0 .24.11.3.26a.34.34 0 0 1 0 .37l-.81.74a1.72 1.72 0 0 0 -.5 1.19 1.66 1.66 0 0 0 .5 1.19l1.34 1.36a1.67 1.67 0 0 0 2.37 0l.77-.74a.38.38 0 0 1 .41 0 .34.34 0 0 1 .22.29v1.09a1.68 1.68 0 0 0 1.68 1.62h1.89a1.69 1.69 0 0 0 1.69-1.68v-1.09c0-.14.11-.24.26-.3a.34.34 0 0 1 .37 0l.76.77a1.72 1.72 0 0 0 1.19.5 1.65 1.65 0 0 0 1.18-.5l1.34-1.34a1.67 1.67 0 0 0 0-2.37l-.73-.73a.34.34 0 0 1 0-.37.34.34 0 0 1 .29-.22h1.09a1.68 1.68 0 0 0 1.62-1.67v-1.94a1.69 1.69 0 0 0 -1.68-1.69zm-8.32 6.13a3.5 3.5 0 1 1 3.5-3.5 3.5 3.5 0 0 1 -3.5 3.5z"/></g></svg>